<svg width="208" height="100" viewBox="0 0 208 100" fill="none" xmlns="http://www.w3.org/2000/svg">
<path d="M9.10227 46L1.39773 19.8182H6.66477L11.7955 39.0455H12.0511L17.1989 19.8182H22.4659L27.5795 38.9602H27.8352L32.9318 19.8182H38.1989L30.5114 46H25.3125L19.9943 27.0966H19.6023L14.2841 46H9.10227ZM53.5227 46.5284C50.9432 46.5284 48.7216 45.9773 46.858 44.875C45.0057 43.7614 43.5739 42.1989 42.5625 40.1875C41.5625 38.1648 41.0625 35.7955 41.0625 33.0795C41.0625 30.3977 41.5625 28.0341 42.5625 25.9886C43.5739 23.9432 44.983 22.3466 46.7898 21.1989C48.608 20.0511 50.733 19.4773 53.1648 19.4773C54.642 19.4773 56.0739 19.7216 57.4602 20.2102C58.8466 20.6989 60.0909 21.4659 61.1932 22.5114C62.2955 23.5568 63.1648 24.9148 63.8011 26.5852C64.4375 28.2443 64.7557 30.2614 64.7557 32.6364V34.4432H43.9432V30.625H59.7614C59.7614 29.2841 59.4886 28.0966 58.9432 27.0625C58.3977 26.017 57.6307 25.1932 56.642 24.5909C55.6648 23.9886 54.517 23.6875 53.1989 23.6875C51.767 23.6875 50.517 24.0398 49.4489 24.7443C48.392 25.4375 47.5739 26.3466 46.9943 27.4716C46.4261 28.5852 46.142 29.7955 46.142 31.1023V34.0852C46.142 35.8352 46.4489 37.3239 47.0625 38.5511C47.6875 39.7784 48.5568 40.7159 49.6705 41.3636C50.7841 42 52.0852 42.3182 53.5739 42.3182C54.5398 42.3182 55.4205 42.1818 56.2159 41.9091C57.0114 41.625 57.6989 41.2045 58.2784 40.6477C58.858 40.0909 59.3011 39.4034 59.608 38.5852L64.4318 39.4545C64.0455 40.875 63.3523 42.1193 62.3523 43.1875C61.3636 44.2443 60.1193 45.0682 58.6193 45.6591C57.1307 46.2386 55.4318 46.5284 53.5227 46.5284Z" fill="black"/>
<path d="M70.8196 46V11.0909H75.9162V24.0625H76.223C76.5185 23.517 76.9446 22.8864 77.5014 22.1705C78.0582 21.4545 78.831 20.8295 79.8196 20.2955C80.8082 19.75 82.1151 19.4773 83.7401 19.4773C85.8537 19.4773 87.7401 20.0114 89.3991 21.0795C91.0582 22.1477 92.3594 23.6875 93.3026 25.6989C94.2571 27.7102 94.7344 30.1307 94.7344 32.9602C94.7344 35.7898 94.2628 38.2159 93.3196 40.2386C92.3764 42.25 91.081 43.8011 89.4332 44.892C87.7855 45.9716 85.9048 46.5114 83.7912 46.5114C82.2003 46.5114 80.8991 46.2443 79.8878 45.7102C78.8878 45.1761 78.1037 44.5511 77.5355 43.8352C76.9673 43.1193 76.5298 42.483 76.223 41.9261H75.7969V46H70.8196ZM75.8139 32.9091C75.8139 34.75 76.081 36.3636 76.6151 37.75C77.1491 39.1364 77.9219 40.2216 78.9332 41.0057C79.9446 41.7784 81.1832 42.1648 82.6491 42.1648C84.1719 42.1648 85.4446 41.7614 86.4673 40.9545C87.4901 40.1364 88.2628 39.0284 88.7855 37.6307C89.3196 36.233 89.5866 34.6591 89.5866 32.9091C89.5866 31.1818 89.3253 29.6307 88.8026 28.2557C88.2912 26.8807 87.5185 25.7955 86.4844 25C85.4616 24.2045 84.1832 23.8068 82.6491 23.8068C81.1719 23.8068 79.9219 24.1875 78.8991 24.9489C77.8878 25.7102 77.1207 26.7727 76.598 28.1364C76.0753 29.5 75.8139 31.0909 75.8139 32.9091Z" fill="#B61BC4"/>
<path d="M53.8239 61.8182L44.3295 88H38.875L29.3636 61.8182H34.8352L41.4659 81.9659H41.7386L48.3523 61.8182H53.8239ZM58.6136 88V61.8182H63.7102V88H58.6136ZM61.1875 57.7784C60.3011 57.7784 59.5398 57.483 58.9034 56.892C58.2784 56.2898 57.9659 55.5739 57.9659 54.7443C57.9659 53.9034 58.2784 53.1875 58.9034 52.5966C59.5398 51.9943 60.3011 51.6932 61.1875 51.6932C62.0739 51.6932 62.8295 51.9943 63.4545 52.5966C64.0909 53.1875 64.4091 53.9034 64.4091 54.7443C64.4091 55.5739 64.0909 56.2898 63.4545 56.892C62.8295 57.483 62.0739 57.7784 61.1875 57.7784ZM100.614 88V61.8182H105.54V65.9773H105.812C106.29 64.5682 107.131 63.4602 108.335 62.6534C109.551 61.8352 110.926 61.4261 112.46 61.4261C112.778 61.4261 113.153 61.4375 113.585 61.4602C114.028 61.483 114.375 61.5114 114.625 61.5455V66.4205C114.42 66.3636 114.057 66.3011 113.534 66.233C113.011 66.1534 112.489 66.1136 111.966 66.1136C110.761 66.1136 109.688 66.3693 108.744 66.8807C107.813 67.3807 107.074 68.0795 106.528 68.9773C105.983 69.8636 105.71 70.875 105.71 72.0114V88H100.614ZM126.42 88.5795C124.761 88.5795 123.261 88.2727 121.92 87.6591C120.58 87.0341 119.517 86.1307 118.733 84.9489C117.96 83.767 117.574 82.3182 117.574 80.6023C117.574 79.125 117.858 77.9091 118.426 76.9545C118.994 76 119.761 75.2443 120.727 74.6875C121.693 74.1307 122.773 73.7102 123.966 73.4261C125.159 73.142 126.375 72.9261 127.614 72.7784C129.182 72.5966 130.455 72.4489 131.432 72.3352C132.409 72.2102 133.119 72.0114 133.562 71.7386C134.006 71.4659 134.227 71.0227 134.227 70.4091V70.2898C134.227 68.8011 133.807 67.6477 132.966 66.8295C132.136 66.0114 130.898 65.6023 129.25 65.6023C127.534 65.6023 126.182 65.983 125.193 66.7443C124.216 67.4943 123.54 68.3295 123.165 69.25L118.375 68.1591C118.943 66.5682 119.773 65.2841 120.864 64.3068C121.966 63.3182 123.233 62.6023 124.665 62.1591C126.097 61.7045 127.602 61.4773 129.182 61.4773C130.227 61.4773 131.335 61.6023 132.506 61.8523C133.688 62.0909 134.79 62.5341 135.812 63.1818C136.847 63.8295 137.693 64.7557 138.352 65.9602C139.011 67.1534 139.341 68.7045 139.341 70.6136V88H134.364V84.4205H134.159C133.83 85.0795 133.335 85.7273 132.676 86.3636C132.017 87 131.17 87.5284 130.136 87.9489C129.102 88.3693 127.864 88.5795 126.42 88.5795ZM127.528 84.4886C128.938 84.4886 130.142 84.2102 131.142 83.6534C132.153 83.0966 132.92 82.3693 133.443 81.4716C133.977 80.5625 134.244 79.5909 134.244 78.5568V75.1818C134.063 75.3636 133.71 75.5341 133.188 75.6932C132.676 75.8409 132.091 75.9716 131.432 76.0852C130.773 76.1875 130.131 76.2841 129.506 76.375C128.881 76.4545 128.358 76.5227 127.938 76.5795C126.949 76.7045 126.045 76.9148 125.227 77.2102C124.42 77.5057 123.773 77.9318 123.284 78.4886C122.807 79.0341 122.568 79.7614 122.568 80.6705C122.568 81.9318 123.034 82.8864 123.966 83.5341C124.898 84.1705 126.085 84.4886 127.528 84.4886ZM158.351 61.8182V65.9091H144.05V61.8182H158.351ZM147.885 55.5455H152.982V80.3125C152.982 81.3011 153.129 82.0455 153.425 82.5455C153.72 83.0341 154.101 83.3693 154.567 83.5511C155.044 83.7216 155.561 83.8068 156.118 83.8068C156.527 83.8068 156.885 83.7784 157.192 83.7216C157.499 83.6648 157.737 83.6193 157.908 83.5852L158.828 87.7955C158.533 87.9091 158.112 88.0227 157.567 88.1364C157.021 88.2614 156.339 88.3295 155.521 88.3409C154.18 88.3636 152.93 88.125 151.771 87.625C150.612 87.125 149.675 86.3523 148.959 85.3068C148.243 84.2614 147.885 82.9489 147.885 81.3693V55.5455ZM174.736 88.5284C172.281 88.5284 170.139 87.9659 168.31 86.8409C166.48 85.7159 165.06 84.142 164.048 82.1193C163.037 80.0966 162.531 77.733 162.531 75.0284C162.531 72.3125 163.037 69.9375 164.048 67.9034C165.06 65.8693 166.48 64.2898 168.31 63.1648C170.139 62.0398 172.281 61.4773 174.736 61.4773C177.19 61.4773 179.332 62.0398 181.162 63.1648C182.991 64.2898 184.412 65.8693 185.423 67.9034C186.435 69.9375 186.94 72.3125 186.94 75.0284C186.94 77.733 186.435 80.0966 185.423 82.1193C184.412 84.142 182.991 85.7159 181.162 86.8409C179.332 87.9659 177.19 88.5284 174.736 88.5284ZM174.753 84.25C176.344 84.25 177.662 83.8295 178.707 82.9886C179.753 82.1477 180.526 81.0284 181.026 79.6307C181.537 78.233 181.793 76.6932 181.793 75.0114C181.793 73.3409 181.537 71.8068 181.026 70.4091C180.526 69 179.753 67.8693 178.707 67.017C177.662 66.1648 176.344 65.7386 174.753 65.7386C173.151 65.7386 171.821 66.1648 170.764 67.017C169.719 67.8693 168.94 69 168.429 70.4091C167.929 71.8068 167.679 73.3409 167.679 75.0114C167.679 76.6932 167.929 78.233 168.429 79.6307C168.94 81.0284 169.719 82.1477 170.764 82.9886C171.821 83.8295 173.151 84.25 174.753 84.25ZM192.629 88V61.8182H197.555V65.9773H197.828C198.305 64.5682 199.146 63.4602 200.351 62.6534C201.567 61.8352 202.942 61.4261 204.476 61.4261C204.794 61.4261 205.169 61.4375 205.601 61.4602C206.044 61.483 206.391 61.5114 206.641 61.5455V66.4205C206.436 66.3636 206.072 66.3011 205.55 66.233C205.027 66.1534 204.504 66.1136 203.982 66.1136C202.777 66.1136 201.703 66.3693 200.76 66.8807C199.828 67.3807 199.089 68.0795 198.544 68.9773C197.999 69.8636 197.726 70.875 197.726 72.0114V88H192.629Z" fill="black"/>
<path d="M70.9759 88V53.0909H76.0724V66.0625H76.3793C76.6747 65.517 77.1009 64.8864 77.6577 64.1705C78.2145 63.4545 78.9872 62.8295 79.9759 62.2955C80.9645 61.75 82.2713 61.4773 83.8963 61.4773C86.0099 61.4773 87.8963 62.0114 89.5554 63.0795C91.2145 64.1477 92.5156 65.6875 93.4588 67.6989C94.4134 69.7102 94.8906 72.1307 94.8906 74.9602C94.8906 77.7898 94.419 80.2159 93.4759 82.2386C92.5327 84.25 91.2372 85.8011 89.5895 86.892C87.9418 87.9716 86.0611 88.5114 83.9474 88.5114C82.3565 88.5114 81.0554 88.2443 80.044 87.7102C79.044 87.1761 78.2599 86.5511 77.6918 85.8352C77.1236 85.1193 76.6861 84.483 76.3793 83.9261H75.9531V88H70.9759ZM75.9702 74.9091C75.9702 76.75 76.2372 78.3636 76.7713 79.75C77.3054 81.1364 78.0781 82.2216 79.0895 83.0057C80.1009 83.7784 81.3395 84.1648 82.8054 84.1648C84.3281 84.1648 85.6009 83.7614 86.6236 82.9545C87.6463 82.1364 88.419 81.0284 88.9418 79.6307C89.4759 78.233 89.7429 76.6591 89.7429 74.9091C89.7429 73.1818 89.4815 71.6307 88.9588 70.2557C88.4474 68.8807 87.6747 67.7955 86.6406 67C85.6179 66.2045 84.3395 65.8068 82.8054 65.8068C81.3281 65.8068 80.0781 66.1875 79.0554 66.9489C78.044 67.7102 77.277 68.7727 76.7543 70.1364C76.2315 71.5 75.9702 73.0909 75.9702 74.9091Z" fill="#B61BC4"/>
</svg>
